<?xml version="1.0" encoding="UTF-8"?>
<svg width="88px" height="39px" viewBox="0 0 88 39" version="1.1" xmlns="http://www.w3.org/2000/svg" xmlns:xlink="http://www.w3.org/1999/xlink">
    <!-- Generator: Sketch 52.5 (67469) - http://www.bohemiancoding.com/sketch -->
    <title>Group 265</title>
    <desc>Created with Sketch.</desc>
    <g id="Emails" stroke="none" stroke-width="1" fill="none" fill-rule="evenodd">
        <g id="email/cotacao" transform="translate(-112.000000, -112.000000)">
            <g id="Group-265" transform="translate(112.000000, 112.000000)">
                <path d="M20.0059112,37.5040332 L20.5626538,36.8497624 C21.066926,37.2811548 21.5716627,37.5262747 22.2259165,37.5262747 C22.7979822,37.5262747 23.1592381,37.2658638 23.1592381,36.8720039 L23.1592381,36.8571763 C23.1592381,36.4855579 22.9484281,36.2844577 21.9700656,36.0615793 C20.8486867,35.7937546 20.2167211,35.4666192 20.2167211,34.5074545 L20.2167211,34.4921635 C20.2167211,33.6001867 20.9694148,32.9829851 22.0151065,32.9829851 C22.7831234,32.9829851 23.3923363,33.2132773 23.9267906,33.6372559 L23.4304121,34.3285958 C22.9558575,33.9792189 22.4817673,33.7934097 22.0002476,33.7934097 C21.4583639,33.7934097 21.1426133,34.0686483 21.1426133,34.4106113 L21.1426133,34.425439 C21.1426133,34.8271761 21.383141,35.0055714 22.3916855,35.2437408 C23.505635,35.5111022 24.0851302,35.9054254 24.0851302,36.7677469 L24.0851302,36.7825746 C24.0851302,37.7570303 23.3096839,38.3371627 22.2031638,38.3371627 C21.3984642,38.3371627 20.638341,38.0619241 20.0059112,37.5040332" id="Fill-223" fill="#222222"></path>
                <polygon id="Fill-225" fill="#222222" points="28.9480144 33.0572161 32.854035 33.0572161 32.854035 33.8755179 29.8734423 33.8755179 29.8734423 35.2285425 32.5150675 35.2285425 32.5150675 36.0463809 29.8734423 36.0463809 29.8734423 37.4448152 32.8916465 37.4448152 32.8916465 38.2626537 28.9480144 38.2626537"></polygon>
                <path d="M37.5291869,35.6747162 L37.5291869,35.6598885 C37.5291869,34.202607 38.6579953,32.9677404 40.246035,32.9677404 C41.1640334,32.9677404 41.7286698,33.2207375 42.2705535,33.6743714 L41.6831645,34.3661747 C41.2768678,34.0242116 40.8784649,33.8082837 40.2084235,33.8082837 C39.2374905,33.8082837 38.50012,34.6483637 38.50012,35.6450609 L38.50012,35.6598885 C38.50012,36.7307241 39.2147378,37.5189072 40.2910759,37.5189072 C40.7879187,37.5189072 41.2397207,37.3627533 41.5633651,37.1250473 L41.5633651,36.1505916 L40.215853,36.1505916 L40.215853,35.3549947 L42.4586109,35.3549947 L42.4586109,37.5411487 C41.9390154,37.9799549 41.1942155,38.3515733 40.2608939,38.3515733 C38.6129544,38.3515733 37.5291869,37.1917718 37.5291869,35.6747162" id="Fill-227" fill="#222222"></path>
                <path d="M47.3516306,36.0540265 L47.3516306,33.0574478 L48.2775228,33.0574478 L48.2775228,36.0169573 C48.2775228,36.9835358 48.7817951,37.5038942 49.6097117,37.5038942 C50.4301989,37.5038942 50.9344712,37.0131911 50.9344712,36.0540265 L50.9344712,33.0574478 L51.859899,33.0574478 L51.859899,36.0095435 C51.859899,37.5636682 50.9716183,38.3444375 49.5943885,38.3444375 C48.2250525,38.3444375 47.3516306,37.5636682 47.3516306,36.0540265" id="Fill-229" fill="#222222"></path>
                <path d="M59.1841055,35.6376471 C59.8462531,35.6376471 60.267873,35.295684 60.267873,34.7674484 L60.267873,34.7526207 C60.267873,34.1951931 59.861112,33.8902993 59.1762118,33.8902993 L57.829164,33.8902993 L57.829164,35.6376471 L59.1841055,35.6376471 Z M56.9037362,33.0571698 L59.2514347,33.0571698 C59.9140466,33.0571698 60.4331777,33.2508562 60.7721453,33.5779915 C61.0502844,33.8601806 61.208624,34.24709 61.208624,34.7007239 L61.208624,34.7155516 C61.208624,35.5709226 60.6890286,36.0838671 59.9516581,36.2919178 L61.3739288,38.2626073 L60.2827319,38.2626073 L58.9881544,36.4480717 L58.9732956,36.4480717 L57.829164,36.4480717 L57.829164,38.2626073 L56.9037362,38.2626073 L56.9037362,33.0571698 Z" id="Fill-231" fill="#222222"></path>
                <path d="M70.4218085,35.6747162 L70.4218085,35.6598885 C70.4218085,34.6483637 69.6765442,33.8082837 68.6303882,33.8082837 C67.5842322,33.8082837 66.8542911,34.633536 66.8542911,35.6450609 L66.8542911,35.6598885 C66.8542911,36.6714134 67.599091,37.5114934 68.645247,37.5114934 C69.6918674,37.5114934 70.4218085,36.6862411 70.4218085,35.6747162 M65.883358,35.6747162 L65.883358,35.6598885 C65.883358,34.1951931 67.0274896,32.9677404 68.645247,32.9677404 C70.2634688,32.9677404 71.3927415,34.1803655 71.3927415,35.6450609 L71.3927415,35.6598885 C71.3927415,37.1250473 70.24861,38.3515733 68.6303882,38.3515733 C67.0121664,38.3515733 65.883358,37.139875 65.883358,35.6747162" id="Fill-233" fill="#222222"></path>
                <path d="M75.8954843,37.5040332 L76.4522269,36.8497624 C76.9564992,37.2811548 77.4612358,37.5262747 78.1154896,37.5262747 C78.6875554,37.5262747 79.0488112,37.2658638 79.0488112,36.8720039 L79.0488112,36.8571763 C79.0488112,36.4855579 78.8380012,36.2844577 77.8596387,36.0615793 C76.7382598,35.7937546 76.1062943,35.4666192 76.1062943,34.5074545 L76.1062943,34.4921635 C76.1062943,33.6001867 76.858988,32.9829851 77.9046796,32.9829851 C78.6726965,32.9829851 79.2819094,33.2132773 79.8163637,33.6372559 L79.3199852,34.3285958 C78.8454307,33.9792189 78.3713404,33.7934097 77.8898208,33.7934097 C77.347937,33.7934097 77.0321864,34.0686483 77.0321864,34.4106113 L77.0321864,34.425439 C77.0321864,34.8271761 77.2727141,35.0055714 78.2812586,35.2437408 C79.3952082,35.5111022 79.9747034,35.9054254 79.9747034,36.7677469 L79.9747034,36.7825746 C79.9747034,37.7570303 79.1992571,38.3371627 78.092737,38.3371627 C77.2880373,38.3371627 76.5279142,38.0619241 75.8954843,37.5040332" id="Fill-235" fill="#222222"></path>
                <path d="M6.50079395,30.6961883 C6.50079395,32.8809522 5.64083792,33.6612582 3.29499675,33.6612582 L0.245681822,33.6612582 L0.245681822,38.1864765 L2.51304969,38.1864765 C8.41619277,38.1864765 11.114003,35.6894049 11.114003,30.1892674 L11.114003,10.9174716 L6.50079395,10.9174716 L6.50079395,30.6961883 Z" id="Fill-237" fill="#222222"></path>
                <path d="M27.2201622,21.6065972 C27.2201622,24.1032055 25.6562681,25.7416626 23.4279047,25.7416626 C21.1995413,25.7416626 19.597107,24.1032055 19.597107,21.6065972 L19.597107,10.9177033 L14.983898,10.9177033 L14.983898,20.8652139 C14.983898,23.2839769 15.2183892,25.1564332 16.5867966,26.9121215 C18.2286997,29.0185768 20.7305588,30.2279584 23.4279047,30.2279584 C28.3540783,30.2279584 31.8333712,26.8731989 31.8333712,20.8652139 L31.8333712,10.9177033 L27.2201622,10.9177033 L27.2201622,21.6065972 Z" id="Fill-239" fill="#222222"></path>
                <path d="M43.8742879,10.566334 C38.9485787,10.566334 35.4302812,13.9215568 35.4302812,19.9290784 L35.4302812,29.8770524 L40.0430259,29.8770524 L40.0430259,19.1487725 C40.0430259,16.6521642 41.6459245,15.0526297 43.8742879,15.0526297 C46.1026513,15.0526297 47.6660811,16.6521642 47.6660811,19.1487725 L47.6660811,29.8770524 L52.2792901,29.8770524 L52.2792901,19.9290784 C52.2792901,17.5103154 52.0447989,15.6378592 50.6763915,13.8826342 C49.0344884,11.7757155 46.5716338,10.566334 43.8742879,10.566334" id="Fill-241" fill="#222222"></path>
                <path d="M60.6455664,5.96299231 L56.0323574,5.96299231 L56.0323574,21.8795653 C56.0323574,27.3801661 58.7691721,29.8767744 64.6723152,29.8767744 L65.9622492,29.8767744 L65.9622492,25.351556 L63.8903681,25.351556 C61.5449913,25.351556 60.6455664,24.57125 60.6455664,22.3869495 L60.6455664,15.442968 L65.9622492,15.442968 L65.9622492,10.9172863 L60.6455664,10.9172863 L60.6455664,5.96299231 Z" id="Fill-243" fill="#222222"></path>
                <path d="M78.0005656,25.653299 C75.0724432,25.653299 72.6987417,23.2845793 72.6987417,20.3626023 C72.6987417,17.4406254 75.0724432,15.0719057 78.0005656,15.0719057 C80.9286881,15.0719057 83.3023896,17.4406254 83.3023896,20.3626023 C83.3023896,23.2845793 80.9286881,25.653299 78.0005656,25.653299 M78.0005656,10.5675387 C72.5794066,10.5675387 68.1849012,14.9532844 68.1849012,20.3626023 C68.1849012,25.7723837 72.5794066,30.157666 78.0005656,30.157666 C83.4217247,30.157666 87.8162301,25.7723837 87.8162301,20.3626023 C87.8162301,14.9532844 83.4217247,10.5675387 78.0005656,10.5675387" id="Fill-245" fill="#222222"></path>
                <path d="M9.79950541,2.22099905 C9.80275578,2.17280914 9.80693483,2.12508259 9.80693483,2.07596594 C9.80693483,0.953233592 8.89450849,0.0431855779 7.76941483,0.0431855779 C6.7302239,0.0431855779 5.87491127,0.819784596 5.74953971,1.82296889 C4.51532636,2.03889678 3.57643268,3.11158576 3.57643268,4.40483627 C3.57643268,5.80280718 4.67227298,6.94175729 6.05275314,7.02145599 C6.62528326,7.95791579 7.65565175,8.58484805 8.83553742,8.58484805 C10.6367088,8.58484805 12.096591,7.12802984 12.096591,5.33063868 C12.096591,3.8682601 11.129837,2.6310767 9.79950541,2.22099905" id="Fill-247" fill="#FFFFFF"></path>
                <path d="M7.76946126,0.0431392414 C6.73027034,0.0431392414 5.87449336,0.820201624 5.74958614,1.82292255 C5.73937068,1.90632817 5.73194125,1.99019716 5.73194125,2.07638297 C5.73194125,2.57913353 5.91628388,3.03832782 6.21949732,3.39326508 C6.59282596,3.8311446 7.14817553,4.10916334 7.76946126,4.10916334 C8.13489614,4.10916334 8.47711406,4.01185678 8.77382675,3.84365544 C9.35053592,3.51698342 9.7503319,2.91785303 9.79955184,2.22095272 C9.80280222,2.1727628 9.80698127,2.12503625 9.80698127,2.07638297 C9.80698127,0.953187256 8.89455492,0.0431392414 7.76946126,0.0431392414" id="Fill-249" fill="#7E6AAF"></path>
                <path d="M9.79950541,2.22099905 C9.49489895,2.12693605 9.1712546,2.07596594 8.83553742,2.07596594 C8.44781426,2.07596594 8.07727166,2.14732409 7.7322677,2.27104243 C7.12305479,2.49021387 6.59881594,2.88407375 6.21945088,3.39331141 C5.8159402,3.9349846 5.57401952,4.60408303 5.57401952,5.33063868 C5.57401952,5.95062047 5.75093272,6.52797273 6.05275314,7.02145599 C6.62528326,7.95791579 7.65565175,8.58484805 8.83553742,8.58484805 C10.6367088,8.58484805 12.096591,7.12802984 12.096591,5.33063868 C12.096591,3.8682601 11.129837,2.6310767 9.79950541,2.22099905" id="Fill-251" fill="#49C2C6"></path>
                <path d="M7.73245343,2.27118144 C8.25344191,2.64279982 8.63280697,3.19837394 8.77350171,3.84384079 C9.35021089,3.5167054 9.75000686,2.91757501 9.79969114,2.22113806 C9.49462035,2.12707506 9.17097599,2.07610495 8.83572316,2.07610495 C8.44753566,2.07610495 8.07745739,2.1474631 7.73245343,2.27118144" id="Fill-253" fill="#3B5AA9"></path>
                <path d="M8.77373388,3.84379445 C8.6325748,3.1983276 8.25320974,2.64275349 7.7326856,2.2711351 C7.30177891,1.96392439 6.7756827,1.78089539 6.20593862,1.78089539 C6.04992068,1.78089539 5.89808179,1.79711315 5.74949327,1.82306156 C4.51527992,2.03898945 3.57638625,3.11167843 3.57638625,4.40492894 C3.57638625,5.80289985 4.67222654,6.94184996 6.05270671,7.02154867 C6.10378401,7.02432885 6.15439697,7.0289625 6.20593862,7.0289625 C7.65839135,7.0289625 8.83549099,5.85433332 8.83549099,4.40492894 C8.83549099,4.21216928 8.81320271,4.02497 8.77373388,3.84379445" id="Fill-255" fill="#9695C9"></path>
                <path d="M6.21931158,3.39349676 C6.59867663,2.88379573 7.12291549,2.48993585 7.73259274,2.27122777 C7.30168604,1.96401706 6.77558983,1.78098806 6.20584575,1.78098806 C6.04982781,1.78098806 5.89798892,1.79720582 5.7494004,1.82315423 C5.73918494,1.90609649 5.73221986,1.99042884 5.73221986,2.07615129 C5.73221986,2.57936521 5.91609814,3.0385595 6.21931158,3.39349676" id="Fill-257" fill="#5C5CA8"></path>
                <path d="M8.83549099,4.40506795 C8.83549099,4.21230829 8.81320271,4.02464564 8.77373388,3.84393346 C8.47702119,4.0121348 8.13480327,4.10944136 7.76936839,4.10944136 C7.14808267,4.10944136 6.59319743,3.83095925 6.21940445,3.3935431 C5.81589376,3.93521628 5.57443743,4.60385135 5.57443743,5.33087036 C5.57443743,5.95085216 5.75135063,6.52820441 6.05270671,7.02122431 C6.10378401,7.02446786 6.15439697,7.02910151 6.20593862,7.02910151 C7.65839135,7.02910151 8.83549099,5.85447232 8.83549099,4.40506795" id="Fill-259" fill="#0F7AC0"></path>
                <path d="M7.73245343,2.27118144 C7.12277619,2.49035288 6.59900167,2.8837494 6.21917228,3.39345042 C6.59296526,3.83086658 7.14831484,4.10934868 7.76960056,4.10934868 C8.13503544,4.10934868 8.47725336,4.01204212 8.77350171,3.84384079 C8.63280697,3.19837394 8.25344191,2.64279982 7.73245343,2.27118144" id="Fill-261" fill="#3C4CA0"></path>
            </g>
        </g>
    </g>
</svg>